<svg width="447" height="104" viewBox="0 0 447 104" fill="none" xmlns="http://www.w3.org/2000/svg">
<rect width="447" height="104" rx="8" fill="#3858E9"/>
<path fill-rule="evenodd" clip-rule="evenodd" d="M53.7117 45.4839C52.665 46.9277 52.1127 48.7017 52.0239 50.6513C52.0096 50.9667 52.0073 51.2866 52.0171 51.6105C52.1494 55.9965 54.4813 61.1051 58.6879 65.3118C65.1258 71.7496 73.6761 73.7966 78.516 70.2881C76.4802 69.8084 74.4206 69.0607 72.3926 68.0633C71.872 68.0405 71.3119 67.9726 70.7116 67.8526C69.6852 67.6473 68.5998 67.2949 67.4941 66.7936C67.4941 66.7935 67.494 66.7933 67.494 66.7931C65.4719 65.8765 63.3818 64.4622 61.4596 62.54C59.5376 60.618 58.1234 58.5281 57.2068 56.5063C57.2067 56.5062 57.2066 56.5062 57.2065 56.5062C56.7053 55.4004 56.3528 54.315 56.1475 53.2884C56.0275 52.6883 55.9596 52.1283 55.9368 51.6078C54.9393 49.5797 54.1914 47.5199 53.7117 45.4839ZM49.6795 57.6906C49.826 57.5441 49.9797 57.4074 50.1401 57.2805C50.6117 58.657 51.234 60.0303 51.9968 61.3734C51.8942 61.826 51.8726 62.446 52.0388 63.2771C52.3687 64.9269 53.3976 66.9522 55.2229 68.7775C57.0482 70.6028 59.0735 71.6316 60.7232 71.9616C61.5546 72.1279 62.1747 72.1061 62.6273 72.0035C63.9704 72.7662 65.3437 73.3884 66.7201 73.8599C66.5931 74.0204 66.4564 74.1743 66.3097 74.3209C63.2482 77.3825 57.0435 76.1415 52.4512 71.5492C47.8589 66.9569 46.6179 60.7522 49.6795 57.6906ZM64.9239 59.0758C74.1086 68.2605 86.518 70.7424 92.6411 64.6193C94.855 62.4053 95.9439 59.3696 95.9979 55.9616C96.0931 49.9441 92.9613 42.7661 87.0976 36.9024C77.913 27.7177 65.5036 25.2359 59.3805 31.359C57.1636 33.5758 56.0747 36.6167 56.0235 40.0303C55.9332 46.045 59.0647 53.2166 64.9239 59.0758ZM77.8586 60.7056C78.0292 61.5584 78.0944 62.3301 78.0747 63.0224C74.6255 61.8218 70.9702 59.5789 67.6956 56.3044C64.4211 53.0298 62.1782 49.3745 60.9776 45.9254C61.67 45.9056 62.4417 45.9709 63.2945 46.1415C66.1981 46.7222 69.5731 48.4802 72.5465 51.4536C75.5198 54.427 77.2779 57.8019 77.8586 60.7056ZM62.1522 34.1307C60.4927 35.7902 59.6072 38.4895 60.0533 42.0608C64.7483 41.6044 70.6005 43.9642 75.3182 48.6819C80.0359 53.3996 82.3957 59.2517 81.9392 63.9468C85.5106 64.3928 88.2098 63.5073 89.8693 61.8478C91.7158 60.0013 92.604 56.8677 91.7661 52.6777C90.9345 48.5201 88.4474 43.7955 84.3259 39.6741C80.2045 35.5526 75.4799 33.0655 71.3223 32.2339C67.1323 31.3959 63.9987 32.2842 62.1522 34.1307Z" fill="white"/>
<path d="M113.273 44.2614V40.7273H131.841V44.2614H124.648V64H120.466V44.2614H113.273ZM132.786 64V46.5455H136.775V49.4545H136.957C137.275 48.447 137.82 47.6705 138.593 47.125C139.373 46.572 140.263 46.2955 141.263 46.2955C141.491 46.2955 141.744 46.3068 142.025 46.3295C142.313 46.3447 142.551 46.3712 142.741 46.4091V50.1932C142.566 50.1326 142.29 50.0795 141.911 50.0341C141.54 49.9811 141.18 49.9545 140.832 49.9545C140.082 49.9545 139.407 50.1174 138.809 50.4432C138.218 50.7614 137.752 51.2045 137.411 51.7727C137.07 52.3409 136.9 52.9962 136.9 53.7386V64H132.786ZM147.922 70.5455C147.361 70.5455 146.842 70.5 146.365 70.4091C145.895 70.3258 145.52 70.2273 145.24 70.1136L146.194 66.9091C146.793 67.0833 147.327 67.1667 147.797 67.1591C148.266 67.1515 148.679 67.0038 149.035 66.7159C149.399 66.4356 149.706 65.9659 149.956 65.3068L150.308 64.3636L143.979 46.5455H148.342L152.365 59.7273H152.547L156.581 46.5455H160.956L153.967 66.1136C153.641 67.0379 153.21 67.8295 152.672 68.4886C152.134 69.1553 151.475 69.6629 150.694 70.0114C149.922 70.3674 148.997 70.5455 147.922 70.5455ZM170.46 64V46.5455H174.574V64H170.46ZM172.528 44.0682C171.877 44.0682 171.316 43.8523 170.846 43.4205C170.377 42.9811 170.142 42.4545 170.142 41.8409C170.142 41.2197 170.377 40.6932 170.846 40.2614C171.316 39.822 171.877 39.6023 172.528 39.6023C173.187 39.6023 173.748 39.822 174.21 40.2614C174.68 40.6932 174.914 41.2197 174.914 41.8409C174.914 42.4545 174.68 42.9811 174.21 43.4205C173.748 43.8523 173.187 44.0682 172.528 44.0682ZM186.88 46.5455V49.7273H176.845V46.5455H186.88ZM179.323 42.3636H183.436V58.75C183.436 59.303 183.52 59.7273 183.686 60.0227C183.861 60.3106 184.088 60.5076 184.368 60.6136C184.648 60.7197 184.959 60.7727 185.3 60.7727C185.558 60.7727 185.792 60.7538 186.005 60.7159C186.224 60.678 186.391 60.6439 186.505 60.6136L187.198 63.8295C186.978 63.9053 186.664 63.9886 186.255 64.0795C185.853 64.1705 185.361 64.2235 184.777 64.2386C183.747 64.2689 182.819 64.1136 181.993 63.7727C181.167 63.4242 180.512 62.8864 180.027 62.1591C179.55 61.4318 179.315 60.5227 179.323 59.4318V42.3636ZM196.977 64V46.5455H201.091V64H196.977ZM199.046 44.0682C198.394 44.0682 197.833 43.8523 197.364 43.4205C196.894 42.9811 196.659 42.4545 196.659 41.8409C196.659 41.2197 196.894 40.6932 197.364 40.2614C197.833 39.822 198.394 39.6023 199.046 39.6023C199.705 39.6023 200.265 39.822 200.727 40.2614C201.197 40.6932 201.432 41.2197 201.432 41.8409C201.432 42.4545 201.197 42.9811 200.727 43.4205C200.265 43.8523 199.705 44.0682 199.046 44.0682ZM208.795 53.7727V64H204.681V46.5455H208.613V49.5114H208.817C209.219 48.5341 209.859 47.7576 210.738 47.1818C211.624 46.6061 212.719 46.3182 214.022 46.3182C215.227 46.3182 216.276 46.5758 217.17 47.0909C218.071 47.6061 218.768 48.3523 219.261 49.3295C219.761 50.3068 220.007 51.4924 219.999 52.8864V64H215.886V53.5227C215.886 52.3561 215.583 51.4432 214.977 50.7841C214.378 50.125 213.549 49.7955 212.488 49.7955C211.768 49.7955 211.128 49.9545 210.567 50.2727C210.014 50.5833 209.579 51.0341 209.261 51.625C208.95 52.2159 208.795 52.9318 208.795 53.7727ZM231.02 64V40.7273H239.748C241.536 40.7273 243.036 41.0606 244.248 41.7273C245.467 42.3939 246.388 43.3106 247.009 44.4773C247.638 45.6364 247.952 46.9545 247.952 48.4318C247.952 49.9242 247.638 51.25 247.009 52.4091C246.38 53.5682 245.452 54.4811 244.225 55.1477C242.998 55.8068 241.486 56.1364 239.691 56.1364H233.907V52.6705H239.123C240.168 52.6705 241.024 52.4886 241.691 52.125C242.358 51.7614 242.85 51.2614 243.168 50.625C243.494 49.9886 243.657 49.2576 243.657 48.4318C243.657 47.6061 243.494 46.8788 243.168 46.25C242.85 45.6212 242.354 45.1326 241.68 44.7841C241.013 44.428 240.153 44.25 239.1 44.25H235.236V64H231.02ZM254.906 40.7273V64H250.792V40.7273H254.906ZM263.519 64.3523C262.413 64.3523 261.417 64.1553 260.53 63.7614C259.651 63.3598 258.954 62.7689 258.439 61.9886C257.932 61.2083 257.678 60.2462 257.678 59.1023C257.678 58.1174 257.86 57.303 258.223 56.6591C258.587 56.0152 259.083 55.5 259.712 55.1136C260.341 54.7273 261.049 54.4356 261.837 54.2386C262.633 54.0341 263.454 53.8864 264.303 53.7955C265.326 53.6894 266.155 53.5947 266.792 53.5114C267.428 53.4205 267.89 53.2841 268.178 53.1023C268.473 52.9129 268.621 52.6212 268.621 52.2273V52.1591C268.621 51.303 268.367 50.6402 267.86 50.1705C267.352 49.7008 266.621 49.4659 265.667 49.4659C264.659 49.4659 263.86 49.6856 263.269 50.125C262.686 50.5644 262.292 51.0833 262.087 51.6818L258.246 51.1364C258.549 50.0758 259.049 49.1894 259.746 48.4773C260.443 47.7576 261.295 47.2197 262.303 46.8636C263.311 46.5 264.424 46.3182 265.644 46.3182C266.485 46.3182 267.322 46.4167 268.155 46.6136C268.989 46.8106 269.75 47.1364 270.439 47.5909C271.129 48.0379 271.682 48.6477 272.098 49.4205C272.523 50.1932 272.735 51.1591 272.735 52.3182V64H268.78V61.6023H268.644C268.394 62.0871 268.042 62.5417 267.587 62.9659C267.14 63.3826 266.576 63.7197 265.894 63.9773C265.22 64.2273 264.428 64.3523 263.519 64.3523ZM264.587 61.3295C265.413 61.3295 266.129 61.1667 266.735 60.8409C267.341 60.5076 267.807 60.0682 268.133 59.5227C268.466 58.9773 268.633 58.3826 268.633 57.7386V55.6818C268.504 55.7879 268.284 55.8864 267.973 55.9773C267.67 56.0682 267.329 56.1477 266.951 56.2159C266.572 56.2841 266.197 56.3447 265.826 56.3977C265.454 56.4508 265.133 56.4962 264.86 56.5341C264.246 56.6174 263.697 56.7538 263.212 56.9432C262.727 57.1326 262.345 57.3977 262.064 57.7386C261.784 58.072 261.644 58.5038 261.644 59.0341C261.644 59.7917 261.92 60.3636 262.473 60.75C263.026 61.1364 263.731 61.3295 264.587 61.3295ZM278.163 70.5455C277.602 70.5455 277.083 70.5 276.606 70.4091C276.136 70.3258 275.761 70.2273 275.481 70.1136L276.436 66.9091C277.034 67.0833 277.568 67.1667 278.038 67.1591C278.508 67.1515 278.921 67.0038 279.277 66.7159C279.64 66.4356 279.947 65.9659 280.197 65.3068L280.549 64.3636L274.22 46.5455H278.583L282.606 59.7273H282.788L286.822 46.5455H291.197L284.208 66.1136C283.883 67.0379 283.451 67.8295 282.913 68.4886C282.375 69.1553 281.716 69.6629 280.936 70.0114C280.163 70.3674 279.239 70.5455 278.163 70.5455ZM300.401 70.9091C298.924 70.9091 297.655 70.7083 296.594 70.3068C295.533 69.9129 294.681 69.3826 294.037 68.7159C293.393 68.0492 292.946 67.3106 292.696 66.5L296.401 65.6023C296.567 65.9432 296.81 66.2803 297.128 66.6136C297.446 66.9545 297.874 67.2348 298.412 67.4545C298.958 67.6818 299.643 67.7955 300.469 67.7955C301.636 67.7955 302.602 67.5114 303.367 66.9432C304.132 66.3826 304.514 65.4583 304.514 64.1705V60.8636H304.31C304.098 61.2879 303.787 61.7235 303.378 62.1705C302.977 62.6174 302.442 62.9924 301.776 63.2955C301.117 63.5985 300.287 63.75 299.287 63.75C297.946 63.75 296.73 63.4356 295.639 62.8068C294.556 62.1705 293.692 61.2235 293.049 59.9659C292.412 58.7008 292.094 57.1174 292.094 55.2159C292.094 53.2992 292.412 51.6818 293.049 50.3636C293.692 49.0379 294.56 48.0341 295.651 47.3523C296.742 46.6629 297.958 46.3182 299.299 46.3182C300.321 46.3182 301.162 46.4924 301.821 46.8409C302.488 47.1818 303.018 47.5947 303.412 48.0795C303.806 48.5568 304.105 49.0076 304.31 49.4318H304.537V46.5455H308.594V64.2841C308.594 65.7765 308.238 67.0114 307.526 67.9886C306.814 68.9659 305.84 69.697 304.605 70.1818C303.37 70.6667 301.969 70.9091 300.401 70.9091ZM300.435 60.5227C301.306 60.5227 302.049 60.3106 302.662 59.8864C303.276 59.4621 303.742 58.8523 304.06 58.0568C304.378 57.2614 304.537 56.3068 304.537 55.1932C304.537 54.0947 304.378 53.1326 304.06 52.3068C303.749 51.4811 303.287 50.8409 302.674 50.3864C302.067 49.9242 301.321 49.6932 300.435 49.6932C299.518 49.6932 298.753 49.9318 298.139 50.4091C297.526 50.8864 297.064 51.5417 296.753 52.375C296.442 53.2008 296.287 54.1402 296.287 55.1932C296.287 56.2614 296.442 57.197 296.753 58C297.071 58.7955 297.537 59.4167 298.151 59.8636C298.772 60.303 299.533 60.5227 300.435 60.5227ZM312.17 64V46.5455H316.159V49.4545H316.34C316.659 48.447 317.204 47.6705 317.977 47.125C318.757 46.572 319.647 46.2955 320.647 46.2955C320.874 46.2955 321.128 46.3068 321.409 46.3295C321.696 46.3447 321.935 46.3712 322.124 46.4091V50.1932C321.95 50.1326 321.674 50.0795 321.295 50.0341C320.924 49.9811 320.564 49.9545 320.215 49.9545C319.465 49.9545 318.791 50.1174 318.193 50.4432C317.602 50.7614 317.136 51.2045 316.795 51.7727C316.454 52.3409 316.284 52.9962 316.284 53.7386V64H312.17ZM331.112 64.3409C329.408 64.3409 327.93 63.9659 326.68 63.2159C325.43 62.4659 324.461 61.4167 323.771 60.0682C323.09 58.7197 322.749 57.1439 322.749 55.3409C322.749 53.5379 323.09 51.9583 323.771 50.6023C324.461 49.2462 325.43 48.1932 326.68 47.4432C327.93 46.6932 329.408 46.3182 331.112 46.3182C332.817 46.3182 334.294 46.6932 335.544 47.4432C336.794 48.1932 337.76 49.2462 338.442 50.6023C339.131 51.9583 339.476 53.5379 339.476 55.3409C339.476 57.1439 339.131 58.7197 338.442 60.0682C337.76 61.4167 336.794 62.4659 335.544 63.2159C334.294 63.9659 332.817 64.3409 331.112 64.3409ZM331.135 61.0455C332.059 61.0455 332.832 60.7917 333.453 60.2841C334.074 59.7689 334.537 59.0795 334.84 58.2159C335.15 57.3523 335.305 56.3902 335.305 55.3295C335.305 54.2614 335.15 53.2955 334.84 52.4318C334.537 51.5606 334.074 50.8674 333.453 50.3523C332.832 49.8371 332.059 49.5795 331.135 49.5795C330.188 49.5795 329.4 49.8371 328.771 50.3523C328.15 50.8674 327.684 51.5606 327.374 52.4318C327.071 53.2955 326.919 54.2614 326.919 55.3295C326.919 56.3902 327.071 57.3523 327.374 58.2159C327.684 59.0795 328.15 59.7689 328.771 60.2841C329.4 60.7917 330.188 61.0455 331.135 61.0455ZM353.452 56.6591V46.5455H357.566V64H353.577V60.8977H353.396C353.002 61.875 352.354 62.6742 351.452 63.2955C350.558 63.9167 349.456 64.2273 348.146 64.2273C347.002 64.2273 345.99 63.9735 345.111 63.4659C344.24 62.9508 343.558 62.2045 343.066 61.2273C342.574 60.2424 342.327 59.053 342.327 57.6591V46.5455H346.441V57.0227C346.441 58.1288 346.744 59.0076 347.35 59.6591C347.956 60.3106 348.752 60.6364 349.736 60.6364C350.343 60.6364 350.93 60.4886 351.498 60.1932C352.066 59.8977 352.532 59.4583 352.896 58.875C353.267 58.2841 353.452 57.5455 353.452 56.6591ZM365.27 53.7727V64H361.156V46.5455H365.088V49.5114H365.292C365.694 48.5341 366.334 47.7576 367.213 47.1818C368.099 46.6061 369.194 46.3182 370.497 46.3182C371.702 46.3182 372.751 46.5758 373.645 47.0909C374.546 47.6061 375.243 48.3523 375.736 49.3295C376.236 50.3068 376.482 51.4924 376.474 52.8864V64H372.361V53.5227C372.361 52.3561 372.058 51.4432 371.452 50.7841C370.853 50.125 370.024 49.7955 368.963 49.7955C368.243 49.7955 367.603 49.9545 367.042 50.2727C366.489 50.5833 366.054 51.0341 365.736 51.625C365.425 52.2159 365.27 52.9318 365.27 53.7727ZM386.493 64.3068C385.122 64.3068 383.895 63.9545 382.812 63.25C381.728 62.5455 380.872 61.5227 380.243 60.1818C379.615 58.8409 379.3 57.2121 379.3 55.2955C379.3 53.3561 379.618 51.7197 380.255 50.3864C380.899 49.0455 381.766 48.0341 382.857 47.3523C383.948 46.6629 385.164 46.3182 386.505 46.3182C387.527 46.3182 388.368 46.4924 389.027 46.8409C389.687 47.1818 390.209 47.5947 390.596 48.0795C390.982 48.5568 391.281 49.0076 391.493 49.4318H391.664V40.7273H395.789V64H391.743V61.25H391.493C391.281 61.6742 390.974 62.125 390.573 62.6023C390.171 63.072 389.641 63.4735 388.982 63.8068C388.323 64.1402 387.493 64.3068 386.493 64.3068ZM387.641 60.9318C388.512 60.9318 389.255 60.697 389.868 60.2273C390.482 59.75 390.948 59.0871 391.266 58.2386C391.584 57.3902 391.743 56.4015 391.743 55.2727C391.743 54.1439 391.584 53.1629 391.266 52.3295C390.956 51.4962 390.493 50.8485 389.88 50.3864C389.274 49.9242 388.527 49.6932 387.641 49.6932C386.724 49.6932 385.959 49.9318 385.346 50.4091C384.732 50.8864 384.27 51.5455 383.959 52.3864C383.649 53.2273 383.493 54.1894 383.493 55.2727C383.493 56.3636 383.649 57.3371 383.959 58.1932C384.277 59.0417 384.743 59.7121 385.357 60.2045C385.978 60.6894 386.74 60.9318 387.641 60.9318Z" fill="white"/>
</svg>
